<svg width="374" height="324" viewBox="0 0 374 324" fill="#212121" xmlns="http://www.w3.org/2000/svg">
<g id="Group">
<path id="Vector" d="M43.8 153L39.2 156.6L6.2 126.2L5.5 127V156H0V92.5H5.5V119.3C10.6 114.7 15.8 110.2 21 105.5C26.2 100.9 31.3 96.3 36.5 91.7L40.4 95.6L10.5 122.3L43.8 153Z"  />
<path id="Vector_2" d="M152.2 91.9L175.3 142.8C176.1 141 177 138.9 178.1 136.4C179.2 134 180.3 131.4 181.6 128.6C182.8 125.9 184.1 123.1 185.4 120.2C186.7 117.3 188 114.5 189.3 111.8C192.2 105.4 195.2 98.8 198.4 91.8L203.4 94.1L175.4 156.8L147.1 94L152.2 91.9Z"  />
<path id="Vector_3" d="M229.4 90.3L255.9 155.6C255 155.9 254.3 156 253.8 156.2C253.3 156.3 252.9 156.4 252.5 156.5C252.2 156.6 251.9 156.7 251.6 156.7C251.3 156.8 251 156.8 250.6 156.9L239.9 131.7H218.7L213.7 143.9C212.8 146 211.9 148.2 210.9 150.5C209.9 152.8 209.1 155 208.3 157C207.9 156.9 207.3 156.7 206.6 156.6C205.9 156.4 204.7 156.2 203 155.8L229.4 90.3ZM223.1 85.9L233.6 78.1C234.9 78.1 236.2 78.1 237.5 78.1C238.8 78.1 240.1 78.1 241.4 78.1C237.8 80.8 234.3 83.4 231 85.9C227.7 88.4 224.2 91 220.6 93.7L223.1 85.9ZM237.7 126.6C237 124.4 235.9 121.4 234.4 117.6C232.9 113.8 231.3 109.3 229.4 104L220.7 126.5H237.7V126.6Z"  />
<path id="Vector_4" d="M317.8 147.9C314.5 150.7 310.9 152.8 307.2 154.3C303.5 155.8 299.6 156.6 295.4 156.6C290.9 156.6 286.7 155.7 282.8 154C278.9 152.3 275.5 149.9 272.5 147C269.6 144.1 267.3 140.7 265.6 136.7C263.9 132.8 263.1 128.6 263.1 124.2C263.1 119.7 263.9 115.5 265.6 111.6C267.3 107.7 269.6 104.2 272.5 101.3C275.4 98.3 278.8 96 282.8 94.3C286.7 92.6 290.9 91.7 295.4 91.7C298.9 91.7 302.3 92.3 305.8 93.6C309.3 94.9 312.7 96.7 316.1 99.2L311.8 102.7C306.7 99.1 301.2 97.3 295.4 97.3C291.7 97.3 288.2 98 285 99.4C281.8 100.8 278.9 102.7 276.5 105.1C274.1 107.5 272.2 110.4 270.8 113.7C269.4 117 268.7 120.5 268.7 124.2C268.7 127.9 269.4 131.3 270.8 134.5C272.2 137.7 274.1 140.6 276.5 143C278.9 145.4 281.7 147.4 285 148.8C288.2 150.2 291.7 150.9 295.4 150.9C298.7 150.9 301.9 150.2 305.1 148.9C308.3 147.6 311.3 145.7 314.2 143.3L317.8 147.9Z"  />
<path id="Vector_5" d="M373.2 138.3C373.2 141.3 372.6 143.9 371.3 146.2C370 148.5 368.3 150.4 366.2 151.9C364 153.4 361.5 154.6 358.7 155.4C355.8 156.2 352.8 156.6 349.6 156.6C348.3 156.6 346.7 156.5 345.1 156.3C343.4 156.1 341.7 155.8 339.9 155.5C338.1 155.1 336.4 154.7 334.6 154.2C332.8 153.7 331.1 153.2 329.5 152.6L331.8 148L334.9 148.7C335.7 148.9 336.6 149.1 337.6 149.4C338.6 149.7 339.7 149.9 340.9 150.1C342.1 150.3 343.2 150.5 344.4 150.6C345.6 150.8 346.6 150.8 347.6 150.8H351.5C353.6 150.8 355.6 150.5 357.6 149.9C359.5 149.3 361.2 148.5 362.7 147.3C364.2 146.2 365.3 144.8 366.2 143.2C367.1 141.6 367.5 139.7 367.5 137.6C367.5 136.7 367.3 135.7 366.8 134.6C366.4 133.5 365.9 132.6 365.4 131.9V132C364.5 130.8 363.5 129.8 362.4 129.1C361.3 128.4 360.1 127.8 358.9 127.4C357.7 127 356.5 126.7 355.1 126.6C353.8 126.4 352.5 126.3 351.2 126.2C349 126.1 346.8 125.9 344.6 125.6C342.4 125.3 340.2 124.5 338.1 123.2V123.3C335.8 122 333.9 120.2 332.4 117.7C330.9 115.3 330.1 112.5 330.1 109.4C330.1 105.2 331.7 101.5 334.8 98.5C337.9 95.5 342.1 93.4 347.3 92.3H347.2C348 92.2 349.1 92 350.6 91.9C352.1 91.7 353.8 91.7 355.7 91.7C356.7 91.7 357.9 91.8 359.3 92C360.6 92.2 362 92.5 363.5 92.8C364.9 93.1 366.4 93.5 367.8 93.9C369.2 94.3 370.5 94.8 371.7 95.2L369.5 100.4C367.8 99.8 366.3 99.3 364.9 98.9C363.5 98.5 362.2 98.2 361 97.9C359.7 97.7 358.5 97.5 357.3 97.4C356.1 97.3 354.9 97.2 353.6 97.2C351.6 97.2 349.6 97.4 347.5 97.9C345.4 98.4 343.5 99.1 341.8 100.1C340.1 101.1 338.6 102.3 337.5 103.9C336.4 105.4 335.8 107.3 335.8 109.4C335.8 110.1 335.9 110.9 336.2 111.7C336.5 112.5 336.8 113.3 337.3 114.1C337.8 114.9 338.3 115.6 338.8 116.3C339.4 117 340 117.6 340.6 118C342.3 119 344 119.7 345.9 120C347.7 120.3 349.6 120.5 351.5 120.6C353.7 120.7 356.1 121.1 358.6 121.6C361.1 122.1 363.5 123 365.7 124.4C366.9 125.2 367.9 126.1 368.8 127.2C369.7 128.3 370.5 129.4 371.2 130.6C371.9 131.8 372.4 133.1 372.8 134.4C373 135.7 373.2 137 373.2 138.3Z"  />
<path id="Vector_6" d="M256.9 0.0999985V65.9H251.4V15.9L229.5 43L207.5 15.6V65.9H202V0L229.5 34L256.9 0.0999985Z"  />
<path id="Vector_7" d="M212.1 215.3V239.5H206.6V176H224.8C227.6 176 230.1 176.5 232.4 177.6C234.7 178.7 236.8 180.2 238.5 182C240.2 183.8 241.6 185.9 242.6 188.3C243.6 190.6 244.1 193.1 244.1 195.6C244.1 197.5 243.8 199.4 243.3 201.3C242.8 203.2 242 204.9 241 206.5C240 208.1 238.7 209.5 237.3 210.7C235.9 211.9 234.2 212.9 232.4 213.7C233.7 215.4 235 217.1 236.3 218.8C237.6 220.5 238.9 222.2 240.2 223.9L252.3 239.7H245.3L226.6 215.5H212.1V215.3ZM212.1 181.6V209.7H224.8C226.7 209.7 228.6 209.3 230.3 208.6C232 207.9 233.5 206.9 234.7 205.6C235.9 204.3 236.9 202.9 237.6 201.1C238.3 199.4 238.7 197.5 238.7 195.6C238.7 193.7 238.3 191.9 237.6 190.2C236.9 188.5 235.9 187 234.7 185.7C233.5 184.4 232 183.4 230.3 182.7C228.6 182 226.8 181.6 224.8 181.6H212.1Z"  />
<path id="Vector_8" d="M251.3 319.7L246.7 323.3L213.8 293L213.1 293.8V322.8H207.6V259.3H213.1V286.1C218.2 281.5 223.4 277 228.6 272.3C233.8 267.7 238.9 263.1 244.1 258.5L248 262.4L218.1 289.1L251.3 319.7Z"  />
<g id="Group_2">
<path id="Vector_9" d="M108.5 113C107.4 113.9 106.3 114.8 105.9 115.1C105.3 115.6 104.8 116 104.2 116.5C103.9 116.8 103.4 116.6 103.1 116.4C102.9 116.3 102.8 116.3 102.6 116.5C98.3 120 94 123.5 89.8 127C89.5 127.2 89.2 127.4 89 127.7C88.2 128.5 88.1 129.4 88.8 130.4C89 130.7 89.2 130.9 89.5 131.2C89.8 131.5 90.1 131.6 90.5 131.3C90.7 131.2 90.8 131.1 91 130.9C91.4 130.5 92 130.5 92.4 130.9C92.6 131.1 92.9 131.4 93 131.7C93.1 131.8 93.1 132 93.2 132.2C93.3 132.5 93.1 132.7 92.9 132.9C92.6 133.1 92.4 133.4 92.1 133.6C91.1 134.4 90.1 135.3 89.1 136.1C88.6 136.5 88.2 136.8 87.7 137.1C87.6 137.2 87.5 137.2 87.4 137.3C87.3 137.3 87.2 137.3 87.1 137.3C86.7 137.1 86.3 136.8 86.1 136.4C85.6 135.7 85.9 135.1 86.5 134.7C87 134.4 87.2 133.9 86.8 133.4C86.5 132.9 86 132.4 85.5 132.1C84.9 131.8 84.4 131.9 83.8 132.2C83.6 132.3 83.4 132.5 83.2 132.6C83.1 132.7 82.9 132.7 82.8 132.6C82.6 132.4 82.5 132.2 82.3 132C82 131.7 81.8 131.3 81.5 131C80.8 130.2 80.4 129.3 80 128.4C79.6 127.3 79.2 126.2 79.1 125C79 123.9 79 122.8 79.2 121.7C79.5 120.3 80 119.1 81 118.1C81.1 118 81.2 117.9 81.3 117.9C81.4 117.9 81.5 117.9 81.5 117.9C81.5 117.9 81.6 118.1 81.5 118.1C81.2 119.4 81.1 120.8 81.3 122.2C81.4 122.9 81.6 123.6 81.9 124.2C82.3 125.1 83 125.6 83.8 125.9C85 126.3 87.1 125.9 88.1 125C89.5 123.8 90.9 122.7 92.3 121.5C95.2 119.1 98.1 116.8 101 114.4C101.1 114.3 101.1 114.3 101.1 114.1C101 113.6 101.1 113.2 101.5 112.9C102.2 112.4 104 111.1 105.7 109.9C100.9 105.3 94.4 102.4 87.2 102.4C72.5 102.4 60.6 114.3 60.6 129C60.6 143.7 72.5 155.6 87.2 155.6C101.9 155.6 113.8 143.7 113.8 129C113.7 122.9 111.8 117.4 108.5 113Z"  />
<path id="Vector_10" d="M121.3 134.1C122.6 126 121 118.3 116.9 111.2C116.3 110.3 115.8 109.3 115 108.5C114.9 108.3 115 108.1 115.2 108C120.8 103.4 126.5 98.9 132.1 94.3C132.3 94.1 132.5 94.1 132.7 94.4C133.2 95.1 133.7 95.7 134.3 96.3C134.6 96.7 134.9 96.7 135 96.2C136.3 92.6 137.5 89 138.8 85.4C139 84.9 138.8 84.7 138.3 84.9C134.8 85.7 131.2 86.5 127.7 87.3C127.2 87.4 127.2 87.6 127.5 88C128 88.7 128.6 89.4 129.1 90C129.4 90.3 129.3 90.5 129 90.7C126.5 92.7 124 94.7 121.5 96.8C118.4 99.3 115.3 101.8 112.2 104.3C112 104.5 111.8 104.7 111.5 104.4C111.4 104.3 111.4 104.3 111.3 104.2C106 99 99.6 95.9 92.3 94.8C84.5 93.6 77.1 95 70.2 98.9C60.5 104.5 54.8 112.9 53 123.9C51.7 132.4 53.4 140.3 58 147.6C63.6 156.3 71.6 161.5 81.9 163.2C89.3 164.4 96.3 163.3 102.9 159.8C113.2 154.2 119.4 145.6 121.3 134.1ZM114.9 139.3C109.2 154.4 92.5 162.3 77 156.8C61.6 151.3 53.6 134.2 59.2 118.8C64.8 103.3 81.8 95.4 97.2 101C112.6 106.5 120.8 123.6 114.9 139.3Z"  />
</g>
</g>
</svg>
