<svg id="logo" width="87" height="80" viewBox="0 0 87 80" fill="#212121" xmlns="http://www.w3.org/2000/svg">
<path d="M56.5 29C55.4 29.9 54.3 30.8 53.9 31.1C53.3 31.6 52.8 32 52.2 32.5C51.9 32.8 51.4 32.6 51.1 32.4C50.9 32.3 50.8 32.3 50.6 32.5C46.3 36 42 39.5 37.8 43C37.5 43.2 37.2 43.4 37 43.7C36.2 44.5 36.1 45.4 36.8 46.4C37 46.7 37.2 46.9 37.5 47.2C37.8 47.5 38.1 47.6 38.5 47.3C38.7 47.2 38.8 47.1 39 46.9C39.4 46.5 40 46.5 40.4 46.9C40.6 47.1 40.9 47.4 41 47.7C41.1 47.8 41.1 48 41.2 48.2C41.3 48.5 41.1 48.7 40.9 48.9C40.6 49.1 40.4 49.4 40.1 49.6C39.1 50.4 38.1 51.3 37.1 52.1C36.6 52.5 36.2 52.8 35.7 53.1C35.6 53.2 35.5 53.2 35.4 53.3C35.3 53.3 35.2 53.3 35.1 53.3C34.7 53.1 34.3 52.8 34.1 52.4C33.6 51.7 33.9 51.1 34.5 50.7C35 50.4 35.2 49.9 34.8 49.4C34.5 48.9 34 48.4 33.5 48.1C32.9 47.8 32.4 47.9 31.8 48.2C31.6 48.3 31.4 48.5 31.2 48.6C31.1 48.7 30.9 48.7 30.8 48.6C30.6 48.4 30.5 48.2 30.3 48C30 47.7 29.8 47.3 29.5 47C28.8 46.2 28.4 45.3 28 44.4C27.6 43.3 27.2 42.2 27.1 41C27 39.9 27 38.8 27.2 37.7C27.5 36.3 28 35.1 29 34.1C29.1 34 29.2 33.9 29.3 33.9C29.4 33.9 29.5 33.9 29.5 33.9C29.5 33.9 29.6 34.1 29.5 34.1C29.2 35.4 29.1 36.8 29.3 38.2C29.4 38.9 29.6 39.6 29.9 40.2C30.3 41.1 31 41.6 31.8 41.9C33 42.3 35.1 41.9 36.1 41C37.5 39.8 38.9 38.7 40.3 37.5C43.2 35.1 46.1 32.8 49 30.4C49.1 30.3 49.1 30.3 49.1 30.1C49 29.6 49.1 29.2 49.5 28.9C50.2 28.4 52 27.1 53.7 25.9C48.9 21.3 42.4 18.4 35.2 18.4C20.5 18.4 8.60001 30.3 8.60001 45C8.60001 59.7 20.5 71.6 35.2 71.6C49.9 71.6 61.8 59.7 61.8 45C61.7 38.9 59.8 33.4 56.5 29Z"/>
<path d="M69.3 50.1C70.6 42 69 34.3 64.9 27.2C64.3 26.3 63.8 25.3 63 24.5C62.9 24.3 63 24.1 63.2 24C68.8 19.4 74.5 14.9 80.1 10.3C80.3 10.1 80.5 10.1 80.7 10.4C81.2 11.1 81.7 11.7 82.3 12.3C82.6 12.7 82.9 12.7 83 12.2C84.3 8.60001 85.5 5 86.8 1.4C87 0.900005 86.8 0.700005 86.3 0.900005C82.8 1.7 79.2 2.5 75.7 3.3C75.2 3.4 75.2 3.6 75.5 4C76 4.7 76.6 5.4 77.1 6C77.4 6.3 77.3 6.50001 77 6.70001C74.5 8.70001 72 10.7 69.5 12.8C66.4 15.3 63.3 17.8 60.2 20.3C60 20.5 59.8 20.7 59.5 20.4C59.4 20.3 59.4 20.3 59.3 20.2C54 15 47.6 11.9 40.3 10.8C32.5 9.6 25.1 11 18.2 14.9C8.5 20.5 2.8 28.9 1 39.9C-0.3 48.4 1.4 56.3 6 63.6C11.6 72.3 19.6 77.5 29.9 79.2C37.3 80.4 44.3 79.3 50.9 75.8C61.2 70.2 67.4 61.6 69.3 50.1ZM62.9 55.3C57.2 70.4 40.5 78.3 25 72.8C9.6 67.3 1.6 50.2 7.2 34.8C12.8 19.3 29.8 11.4 45.2 17C60.6 22.5 68.8 39.6 62.9 55.3Z"/>
</svg>
